<?xml version="1.0" encoding="UTF-8"?>
<svg id="Layer_1" xmlns="http://www.w3.org/2000/svg" version="1.1" viewBox="0 0 1920 1920">
  <!-- Generator: Adobe Illustrator 29.8.5, SVG Export Plug-In . SVG Version: 2.1.1 Build 2)  -->
  <defs>
    <style>
      .st0 {
        fill: #2EA6D9;
      }

      .st1 {
        fill: #0B2343;
      }

      .st2 {
        font-size: 200px;
      }

      .st2, .st3 {
        fill: #0B2343;
        font-family: Arial-Black, Arial;
        font-weight: 800;
      }

      .st3 {
        font-size: 85px;
      }

      .st4 {
        fill: #5BBBE6;
      }

      .st5 {
        fill: #12365E;
      }
    </style>
  </defs>
  <g>
    <path class="st1" d="M927.07,86.38c154.88-18.92,342.19,105.24,344.39,291.92-122.34,33.41-211.58,145.67-261.43,225.82-.94,1.54-3.61,2.38-3,6-2.13-.24-2.24-.13-2,2-.93,1.63-4.47,3.33-4,7-2.81-.65-2.82,2.89-3,5-2.12-.24-2.24-.12-2,2-1.07,1.69-4.78,4.17-5,8,.04,2.24-2.97-.38-2,3-1.89,1.55-5.33,6.95-6,10.99-2.13-.24-2.24-.12-2,2-1.07,1.54-3.49,2.44-3,6-3.05-.09-4.71,5.28-5,7.99-2.94-.63-2.69,2.91-3,5-3.61-.27-4.87,9.25-7.99,10-114.28-61.54-312.43-176.2-311.54-341,21.91-139.83,163.61-242.49,276.55-251.69Z"/>
    <path class="st0" d="M566.05,389.52c21.78-.89,44.45.38,65.76,4.61,40.13,121.27,145.27,197.81,248.37,263.37,20.78,13.22,42.78,24.87,62.76,39.2-41.27,68.9-82.25,139.4-136.29,199.28-69.81,77.35-163.94,132.02-271.71,116.76-181.61-25.72-302.45-202.78-260.46-382.06,31.89-136.16,151.5-235.45,291.57-241.15Z"/>
    <path class="st5" d="M1319.66,389.52c212.14-15.18,376.48,184.82,324.54,390.51-39.07,154.74-191.71,257.16-350.35,232.39-6.45-18.86-11.52-38.04-19.5-56.46-40.32-93.03-121.62-159.04-204.05-213.73-24.99-16.58-55.23-31.85-78.79-49.14-1.59-1.16-4.42-2.23-4.46-4.49,36.28-60.86,74.17-123.4,121.4-176.45,52.22-58.65,129.96-116.81,211.2-122.63Z"/>
    <path class="st4" d="M652.35,1026.03c16.1-4.7,31.93-10.35,47.19-17.27,92.97-42.16,158.33-125.55,212.95-208.83,19.48-29.71,37.12-60.82,56.58-90.38,3.77-1.73,15.22,6.33,19.27,8.7,107.11,62.59,232.52,148.6,272.84,271.88,13.01,39.77,17.72,67.02,6.43,107.95-42.92,155.59-199.4,253.32-358.71,224.35-143.01-26-253.01-150.17-256.54-296.39Z"/>
  </g>
  <text class="st2" transform="translate(191.32 1553.28)"><tspan x="0" y="0">BAHRİ BUDAK</tspan></text>
  <text class="st3" transform="translate(191.32 1680.8)"><tspan x="0" y="0">TEKSTİL PROSES DANIŞMANLIĞI</tspan></text>
</svg>